name ./resultDataOpenSim/trcMotMarkerGrf/sub09/grf-15-03.mot
datacolumns 19
datarows 17
range 0.98800000 1.05200000
endheader

                time	     ground_force_vx	     ground_force_vy	     ground_force_vz	     ground_force_px	     ground_force_py	     ground_force_pz	   l_ground_force_vx	   l_ground_force_vy	   l_ground_force_vz	   l_ground_force_px	   l_ground_force_py	   l_ground_force_pz	     ground_torque_x	     ground_torque_y	     ground_torque_z	   l_ground_torque_x	   l_ground_torque_y	   l_ground_torque_z	
          0.98800000	          0.00000000	          0.00000000	          0.00000000	          0.00000000	          0.00000000	          0.00000000	         39.62934505	        449.29804663	        -10.29229942	          0.10640599	         -0.10000048	         -0.02228374	          0.00000000	          0.00000000	          0.00000000	          0.00000000	         -3.90247540	          0.00000000	
          0.99200000	          0.00000000	          0.00000000	          0.00000000	          0.00000000	          0.00000000	          0.00000000	         41.82691318	        457.16374258	        -10.32739987	          0.10689260	         -0.10000039	         -0.02197584	          0.00000000	          0.00000000	          0.00000000	          0.00000000	         -3.95533080	          0.00000000	
          0.99600000	          0.00000000	          0.00000000	          0.00000000	          0.00000000	          0.00000000	          0.00000000	         44.40874181	        465.63402131	         -9.89816862	          0.10728772	         -0.10000100	         -0.02167612	          0.00000000	          0.00000000	          0.00000000	          0.00000000	         -3.98157579	          0.00000000	
          1.00000000	          0.00000000	          0.00000000	          0.00000000	          0.00000000	          0.00000000	          0.00000000	         47.38006595	        474.74630855	         -9.01699796	          0.10758852	         -0.10000100	         -0.02137455	          0.00000000	          0.00000000	          0.00000000	          0.00000000	         -3.98498925	          0.00000000	
          1.00400000	          0.00000000	          0.00000000	          0.00000000	          0.00000000	          0.00000000	          0.00000000	         50.73036677	        484.45396227	         -7.77611401	          0.10784529	         -0.10000100	         -0.02105798	          0.00000000	          0.00000000	          0.00000000	          0.00000000	         -3.97088733	          0.00000000	
          1.00800000	          0.00000000	          0.00000000	          0.00000000	          0.00000000	          0.00000000	          0.00000000	         54.42981897	        494.62756160	         -6.28998927	          0.10816113	         -0.10000100	         -0.02069044	          0.00000000	          0.00000000	          0.00000000	          0.00000000	         -3.94540641	          0.00000000	
          1.01200000	          0.00000000	          0.00000000	          0.00000000	          0.00000000	          0.00000000	          0.00000000	         58.42124994	        505.08100636	         -4.65048898	          0.10861243	         -0.10000100	         -0.02025077	          0.00000000	          0.00000000	          0.00000000	          0.00000000	         -3.91473102	          0.00000000	
          1.01600000	          0.00000000	          0.00000000	          0.00000000	          0.00000000	          0.00000000	          0.00000000	         62.63333824	        515.63328222	         -2.93473101	          0.10922005	         -0.10000100	         -0.01975402	          0.00000000	          0.00000000	          0.00000000	          0.00000000	         -3.88449511	          0.00000000	
          1.02000000	          0.00000000	          0.00000000	          0.00000000	          0.00000000	          0.00000000	          0.00000000	         67.00730776	        526.14757082	         -1.22164031	          0.10995492	         -0.10000100	         -0.01923314	          0.00000000	          0.00000000	          0.00000000	          0.00000000	         -3.85947267	          0.00000000	
          1.02400000	          0.00000000	          0.00000000	          0.00000000	          0.00000000	          0.00000000	          0.00000000	         71.50939339	        536.52890511	          0.40974413	          0.11074676	         -0.10000100	         -0.01872137	          0.00000000	          0.00000000	          0.00000000	          0.00000000	         -3.84353719	          0.00000000	
          1.02800000	          0.00000000	          0.00000000	          0.00000000	          0.00000000	          0.00000000	          0.00000000	         76.12421731	        546.69748718	          1.87755852	          0.11151987	         -0.10000100	         -0.01822551	          0.00000000	          0.00000000	          0.00000000	          0.00000000	         -3.83970492	          0.00000000	
          1.03200000	          0.00000000	          0.00000000	          0.00000000	          0.00000000	          0.00000000	          0.00000000	         80.84447448	        556.55278898	          3.09585395	          0.11223866	         -0.10000100	         -0.01773748	          0.00000000	          0.00000000	          0.00000000	          0.00000000	         -3.85001861	          0.00000000	
          1.03600000	          0.00000000	          0.00000000	          0.00000000	          0.00000000	          0.00000000	          0.00000000	         85.66417044	        565.98294622	          4.00022422	          0.11291703	         -0.10000100	         -0.01724007	          0.00000000	          0.00000000	          0.00000000	          0.00000000	         -3.87522755	          0.00000000	
          1.04000000	          0.00000000	          0.00000000	          0.00000000	          0.00000000	          0.00000000	          0.00000000	         90.57358953	        574.90271350	          4.57654899	          0.11357690	         -0.10000100	         -0.01670687	          0.00000000	          0.00000000	          0.00000000	          0.00000000	         -3.91451572	          0.00000000	
          1.04400000	          0.00000000	          0.00000000	          0.00000000	          0.00000000	          0.00000000	          0.00000000	         95.55904078	        583.23618224	          4.85352962	          0.11423267	         -0.10000100	         -0.01612782	          0.00000000	          0.00000000	          0.00000000	          0.00000000	         -3.96561054	          0.00000000	
          1.04800000	          0.00000000	          0.00000000	          0.00000000	          0.00000000	          0.00000000	          0.00000000	        100.60666064	        590.88169180	          4.86795600	          0.11489077	         -0.10000100	         -0.01551691	          0.00000000	          0.00000000	          0.00000000	          0.00000000	         -4.02539826	          0.00000000	
          1.05200000	          0.00000000	          0.00000000	          0.00000000	          0.00000000	          0.00000000	          0.00000000	        105.70378482	        597.73015544	          4.63902925	          0.11555345	         -0.10000100	         -0.01488763	          0.00000000	          0.00000000	          0.00000000	          0.00000000	         -4.09085125	          0.00000000	
